<svg width="1073" height="1073" viewBox="0 0 1073 1073" fill="none" xmlns="http://www.w3.org/2000/svg">
<g clip-path="url(#clip0_345_362)">
<mask id="mask0_345_362" style="mask-type:luminance" maskUnits="userSpaceOnUse" x="0" y="0" width="1073" height="1073">
<path d="M1073 0H0V1073H1073V0Z" fill="white"/>
</mask>
<g mask="url(#mask0_345_362)">
<mask id="mask1_345_362" style="mask-type:luminance" maskUnits="userSpaceOnUse" x="0" y="0" width="1073" height="1073">
<path d="M1072.11 0H0V1072.2H1072.11V0Z" fill="white"/>
</mask>
<g mask="url(#mask1_345_362)">
<path d="M536.004 1063.44C827.189 1063.44 1063.24 827.381 1063.24 536.191C1063.24 245.005 827.189 8.9502 536.004 8.9502C244.815 8.9502 8.75928 245.005 8.75928 536.191C8.75928 827.381 244.815 1063.44 536.004 1063.44Z" fill="#F5EEE4"/>
<path d="M535.807 1072.2C239.984 1072 -0.695246 832.125 0.001509 534.609C0.698264 239.685 240.083 -0.79432 537.797 0.00197186C832.72 0.897797 1072.3 240.083 1072.11 536.603C1071.81 832.523 832.125 1072.2 535.807 1072.2ZM54.5473 536.402C57.1355 667.589 102.226 781.859 195.59 875.523C288.756 968.888 402.228 1016.46 533.616 1017.06C665.899 1017.66 780.563 970.779 874.826 877.115C969.084 783.451 1016.56 669.382 1016.76 537.3C1017.06 404.915 969.684 290.449 875.823 196.486C782.454 103.122 668.586 55.7424 537.099 55.4437C405.313 55.145 291.245 102.027 197.382 195.292C102.923 288.856 57.3344 403.522 54.5473 536.402Z" fill="#C2BBAF"/>
<mask id="mask2_345_362" style="mask-type:luminance" maskUnits="userSpaceOnUse" x="52" y="51" width="970" height="970">
<path d="M1021.24 51.7598H52.7554V1020.25H1021.24V51.7598Z" fill="white"/>
</mask>
<g mask="url(#mask2_345_362)">
<mask id="mask3_345_362" style="mask-type:luminance" maskUnits="userSpaceOnUse" x="52" y="51" width="970" height="970">
<path d="M1021.24 51.7598H52.7554V1020.25H1021.24V51.7598Z" fill="white"/>
</mask>
<g mask="url(#mask3_345_362)">
<path d="M611.109 624.111C473.828 665.296 360.258 725.366 289.17 795.75L286.031 798.876C304.934 816.745 325.662 832.724 348.069 846.307L352.886 840.423C372.3 816.745 393.101 793.864 414.778 772.292C472.947 714.399 539.513 664.281 611.181 624.039L611.109 624.111Z" fill="black"/>
<path d="M173.777 563.11C179.25 636.544 206.548 703.879 249.391 758.647L251.361 756.688C295.372 713.321 352.667 673.88 421.782 639.526C482.358 609.379 551.92 583.52 626.873 563.11H173.777Z" fill="black"/>
<path d="M453.168 261.302C576.009 383.548 730.588 464.395 900.135 495.047C879.699 313.817 725.263 172.83 537.613 172.83C488.054 172.83 440.835 182.709 397.698 200.504C415.215 221.569 433.901 242.052 453.168 261.302Z" fill="black"/>
<path d="M289.17 276.258C360.258 346.715 473.828 406.714 611.109 447.973C539.442 407.657 472.875 357.611 414.705 299.72C393.101 278.219 372.3 255.339 352.813 231.587L347.996 225.703C325.589 239.286 304.862 255.267 286.031 273.135L289.17 276.258Z" fill="black"/>
<path d="M453.168 810.723C433.829 829.974 415.143 850.455 397.698 871.522C440.762 889.316 488.054 899.196 537.613 899.196C725.263 899.196 879.699 758.208 900.207 576.907C730.664 607.559 576.08 688.405 453.24 810.651L453.168 810.723Z" fill="black"/>
<path d="M421.782 432.497C352.667 398.14 295.372 358.699 251.361 315.334L249.391 313.373C206.548 368.141 179.25 435.475 173.777 508.91H626.802C551.844 488.501 482.358 462.642 421.71 432.424L421.782 432.497Z" fill="black"/>
</g>
</g>
</g>
</g>
</g>
<defs>
<clipPath id="clip0_345_362">
<rect width="1073" height="1073" fill="white"/>
</clipPath>
</defs>
</svg>
